<?xml version="1.0" encoding="utf-8"?>
<svg xmlns="http://www.w3.org/2000/svg" viewBox="56.193 115.47 397.4219 267" width="397.422px" height="267px" preserveAspectRatio="none">
  <path d="M 70.848 326.331 L 70.848 155.679 L 129.633 155.679 C 142.903 155.679 153.031 156.494 160.015 158.124 C 169.793 160.375 178.136 164.449 185.043 170.347 C 194.045 177.952 200.777 187.671 205.239 199.506 C 209.701 211.341 211.933 224.863 211.933 240.074 C 211.933 253.034 210.419 264.519 207.393 274.53 C 204.366 284.541 200.486 292.826 195.752 299.383 C 191.018 305.94 185.838 311.101 180.212 314.865 C 174.585 318.629 167.795 321.481 159.841 323.421 C 151.886 325.361 142.748 326.331 132.427 326.331 L 70.848 326.331 Z M 93.431 306.193 L 129.866 306.193 C 141.118 306.193 149.946 305.145 156.349 303.05 C 162.751 300.955 167.853 298.006 171.656 294.203 C 177.01 288.848 181.182 281.651 184.17 272.61 C 187.157 263.569 188.651 252.607 188.651 239.725 C 188.651 221.876 185.721 208.159 179.863 198.575 C 174.003 188.991 166.883 182.569 158.502 179.31 C 152.448 176.982 142.709 175.818 129.284 175.818 L 93.431 175.818 L 93.431 306.193 Z M 309.244 326.331 L 309.244 155.679 L 373.616 155.679 C 384.946 155.679 393.599 156.222 399.575 157.309 C 407.956 158.706 414.979 161.364 420.644 165.283 C 426.309 169.202 430.868 174.692 434.322 181.754 C 437.775 188.816 439.502 196.577 439.502 205.036 C 439.502 219.548 434.884 231.829 425.65 241.878 C 416.415 251.928 399.73 256.953 375.595 256.953 L 331.826 256.953 L 331.826 326.331 L 309.244 326.331 Z M 331.826 236.815 L 375.944 236.815 C 390.534 236.815 400.894 234.099 407.025 228.666 C 413.155 223.234 416.221 215.59 416.221 205.734 C 416.221 198.595 414.416 192.483 410.808 187.4 C 407.199 182.317 402.446 178.961 396.548 177.331 C 392.745 176.322 385.722 175.818 375.479 175.818 L 331.826 175.818 L 331.826 236.815 Z" style="fill: rgb(51, 51, 51); text-wrap-mode: nowrap;"/>
</svg>